<svg xmlns="http://www.w3.org/2000/svg" viewBox="0 0 518.55 134.74"><defs><style>.cls-1{fill:#ffc864;}.cls-2{fill:#fff;}</style></defs><title>Asset 2</title><g id="Layer_2" data-name="Layer 2"><g id="black_bg" data-name="black bg"><path class="cls-1" d="M21.67,117.67a122,122,0,0,1,105.12-13c7.28,2.47,10.4-9,3.17-11.48a133.55,133.55,0,0,0-114.3,14.23c-6.41,4.15-.45,14.46,6,10.28Z"/><path class="cls-1" d="M13.85,86.85,129.64,63.57c7.51-1.51,4.33-13-3.17-11.48L10.68,75.36c-7.5,1.51-4.33,13,3.17,11.49Z"/><path class="cls-1" d="M5.71,50.8A214.42,214.42,0,0,0,125.86,25c6.72-3.69.71-14-6-10.28A203.06,203.06,0,0,1,5.71,38.89c-7.63-.62-7.59,11.29,0,11.91Z"/><path class="cls-1" d="M58.9,129c-.08-19.75.41-39.6-.44-59.33C57.75,53.23,55.05,36.27,45,22.8c-4.54-6.06-14.89-.13-10.29,6,9.59,12.79,11.55,28.51,12,44.06.54,18.69.25,37.42.33,56.12,0,7.66,11.93,7.67,11.9,0Z"/><path class="cls-1" d="M87,126.44A248.94,248.94,0,0,0,77,17.89c-2.34-7.26-13.84-4.15-11.48,3.17a240.73,240.73,0,0,1,9.52,105.38c-.42,3.22,3,5.93,6,6,3.56,0,5.54-2.78,6-6Z"/><path class="cls-1" d="M113.34,127.21A187.12,187.12,0,0,0,98.69,3C95.3-3.84,85,2.19,88.41,9a173.94,173.94,0,0,1,13.45,115c-1.71,7.46,9.77,10.64,11.48,3.16Z"/><path class="cls-2" d="M210.51,80.18a3.29,3.29,0,0,1-.9,1.81q-7.91,9.41-21,9.41-13.4,0-21.74-9.15-8.11-8.85-8.12-22.35,0-13.07,8-22.17a26.73,26.73,0,0,1,21.1-9.54q13.92,0,21.83,8.55a2.7,2.7,0,0,1,.86,1.68q0,.81-3,6.06t-3.76,5.88a1.18,1.18,0,0,1-.86.35A11.93,11.93,0,0,1,200.71,49a22.11,22.11,0,0,0-4.55-3.22,15.41,15.41,0,0,0-7-1.72A12.27,12.27,0,0,0,179,48.77a16.88,16.88,0,0,0-3.48,10.83,17.18,17.18,0,0,0,3.48,11,12.19,12.19,0,0,0,10.1,4.81,16,16,0,0,0,7.09-1.63,22.06,22.06,0,0,0,4.47-3,11,11,0,0,1,2.1-1.63,1.2,1.2,0,0,1,.86.47q.69.78,3.74,5.37Q210.51,79.71,210.51,80.18Z"/><path class="cls-2" d="M256.19,68.75q0,9.81-6,15.9t-15.75,6.1q-9.45,0-15.55-6t-6.1-15.47q0-10,5.84-16.18t15.81-6.21q9.72,0,15.73,6.08T256.19,68.75Zm-14.1,0a9.25,9.25,0,0,0-2.1-6,6.73,6.73,0,0,0-5.46-2.6,6.94,6.94,0,0,0-5.59,2.66,9.64,9.64,0,0,0,0,11.91,7.15,7.15,0,0,0,11.13,0A9.19,9.19,0,0,0,242.09,68.75Z"/><path class="cls-2" d="M277,64q0,11.73.09,18c0,.66,0,1.79.13,3.4.09,1.46.13,2.59.13,3.39,0,.6-.36,1-1.08,1.07a46.12,46.12,0,0,1-7,.35,36.75,36.75,0,0,1-6.57-.35,1.27,1.27,0,0,1-1.07-1.16V86.89c0-2.55,0-6.37.08-11.45s.09-8.89.09-11.41q0-18,0-16.46a136.66,136.66,0,0,0-1.07-16.37,4.27,4.27,0,0,1-.09-.73c0-.63.37-.95,1.12-.95H277.2c.71,0,1,.3,1,.91l-.05.77Q277,49.76,277,64Z"/><path class="cls-1" d="M328.07,68.41q0,3.32.39,9.84t.39,9.8c0,1.14-.51,1.76-1.51,1.84q-5.32.39-12.2.39c-.55,0-.91-.82-1.1-2.47s-.41-2.48-.66-2.51a4.05,4.05,0,0,0-.91.73q-4.8,4.84-10.31,4.85a17.3,17.3,0,0,1-13.88-6.61,22.29,22.29,0,0,1-5.2-14.79q0-9.92,5.37-16,5.6-6.27,15.3-6.27A13.1,13.1,0,0,1,314.41,52c.11.15.21.22.3.22.26,0,.55-.7.88-2.09s.72-2.08,1.18-2.08a37.86,37.86,0,0,1,6.06.9c2.84.58,4.87,1.06,6.1,1.46.43.18.65.4.65.69a9,9,0,0,1-.13.9A94.19,94.19,0,0,0,328.07,68.41Zm-13.83.26a8.36,8.36,0,0,0-2.3-6,8.74,8.74,0,0,0-12,0,8.37,8.37,0,0,0-2.28,6.06,8.27,8.27,0,0,0,2.41,6,7.81,7.81,0,0,0,5.84,2.49,8,8,0,0,0,6-2.38A8.39,8.39,0,0,0,314.24,68.67Z"/><path class="cls-2" d="M379.33,88.65a1.23,1.23,0,0,1-1.2,1.33q-1.2.17-6.27.17a47.64,47.64,0,0,1-6.71-.26,1.55,1.55,0,0,1-1.29-1.76c0-1.34.05-3.38.13-6.1s.13-4.77.13-6.14c0-1.06,0-2.65-.08-4.75s-.09-3.69-.09-4.75c0-3.92-1.7-5.89-5.11-5.89A7.49,7.49,0,0,0,354.93,62c-1.61,1.09-2.41,2.17-2.41,3.23v23.2A1.4,1.4,0,0,1,351.19,90q-1.5.17-6.15.17a48.48,48.48,0,0,1-6.53-.26c-.89-.14-1.33-.61-1.33-1.41,0-2.24,0-5.6,0-10.1s0-7.88,0-10.14q0-10.69-1.68-16.8a2.92,2.92,0,0,1-.08-.65.93.93,0,0,1,.64-.94q2.7-.3,7.22-1c4.55-.89,7.12-1.33,7.69-1.33.31,0,.56,1,.73,2.9s.42,2.9.73,2.9c-.31,0,1.23-1,4.62-3s6.37-3,8.92-3A15.43,15.43,0,0,1,375.17,50a9.61,9.61,0,0,1,4.08,8.25v13.7c0,1.87,0,4.65,0,8.36S379.33,86.79,379.33,88.65Z"/><path class="cls-2" d="M432.06,28.92c0-.63-.12.32-.35,2.84q-.46,4.77-.73,12.2-.35,8.43-.34,19.17,0,17.74,1,25.26c.05.55.08.89.08,1,0,.32-.21.5-.64.56-1,.14-4.83.22-11.39.22-1.55,0-2.43-.31-2.66-.91-.06-1.09-.12-2.17-.17-3.26a1.34,1.34,0,0,0-.35-.69,2.73,2.73,0,0,0-.64.52,15.93,15.93,0,0,1-11.6,4.55q-9.08,0-14.53-6.36-5.19-6.06-5.2-15.3t5.12-15.42q5.42-6.45,14.61-6.45,6.48,0,10.09,4.13c.4.46.69.69.86.69s.39-.38.39-1.12q0-3.31-.17-9.88c-.12-4.39-.17-7.67-.17-9.84,0-.84.22-1.31.68-1.42q2.76-.14,7.57-.52c5.72-.71,8.26-1.07,7.6-1.07C431.74,27.85,432.06,28.21,432.06,28.92Zm-16.2,39.49a8.48,8.48,0,0,0-2.37-5.95,7.47,7.47,0,0,0-5.71-2.56,6.85,6.85,0,0,0-5.61,2.56,9.36,9.36,0,0,0-2.08,6.12,8.66,8.66,0,0,0,2.1,5.89,6.93,6.93,0,0,0,5.59,2.58,7.44,7.44,0,0,0,5.76-2.58A8.8,8.8,0,0,0,415.86,68.41Z"/><path class="cls-1" d="M477.77,66.56c0,2.9-.93,4.54-2.79,4.94-.31.06-3.28.38-8.89,1Q461,73,451,73.78A6.12,6.12,0,0,0,454.61,78a13,13,0,0,0,5.68,1.2A16.29,16.29,0,0,0,468,77.18l3.26-2.07c.61.29,1.61,1.75,3,4.39s2.13,4.31,2.13,5c0,.2-.21.53-.64,1q-5.25,5.63-16.29,5.63-10.23,0-16.5-6-6.45-6.06-6.45-16.2,0-9.88,5.76-16.2,5.94-6.52,15.73-6.53a18.66,18.66,0,0,1,14,6A20,20,0,0,1,477.77,66.56Zm-15-2.62a6.68,6.68,0,0,0-1.89-4.68,6,6,0,0,0-4.52-2,5.44,5.44,0,0,0-4.47,2.28,7.87,7.87,0,0,0-1.63,4.94c0,.77.4,1.16,1.21,1.16a75.48,75.48,0,0,0,9.88-1C462.26,64.49,462.74,64.26,462.74,63.94Z"/><path class="cls-2" d="M515.54,62.47c-3.42,1.44-10.61.12-11.12.12-2.38,0-4,2.37-4.86,3.11s-1.29,2.25-1.29,4.51c0,1.24,0,3.11.07,5.61s.06,4.38.06,5.61c0,.83.06,2.07.17,3.72s.17,2.87.17,3.67-.47,1.07-1.41,1.16c-1.38.11-3.48.17-6.32.17a62.84,62.84,0,0,1-6.53-.26c-1-.11-1.42-.58-1.42-1.41,0-2.29,0-5.73,0-10.29s0-8,0-10.3a62.4,62.4,0,0,0-1.85-16.62,3,3,0,0,1-.09-.65.85.85,0,0,1,.65-.86c1.57-.17,3.88-.49,6.91-.94q6.8-1.34,7-1.34c.51,0,.84.91,1,2.71s.4,2.71.77,2.71q-.6,0,3.52-2.26A16.6,16.6,0,0,1,509,48.39c1.61,0,5.53.08,7.53,2.08,1,1,2,1.48,2,3,0,2,0,3.29,0,4S517.08,61.82,515.54,62.47Z"/></g></g></svg>