<svg xmlns="http://www.w3.org/2000/svg" viewBox="0 0 227.1 147.72"><defs><style>.cls-1{fill:#fff;}</style></defs><title>Asset 2</title><g id="Layer_2" data-name="Layer 2"><g id="Layer_1-2" data-name="Layer 1"><path class="cls-1" d="M17.34,85a3.15,3.15,0,0,1,.89-2.19,3,3,0,0,0,.89-2c0-.18-.18-.41-.55-.68s-.59-.46-.68-.55a9.1,9.1,0,0,1-1.5-4.65c-.09-1.73-.14-3.37-.14-4.92q0-12.57.14-24.88t.13-24.89a5.71,5.71,0,0,0-2.59.62c-.82.41-1.69.87-2.6,1.37a28.07,28.07,0,0,1-2.87,1.36,8.63,8.63,0,0,1-3.28.62H3a2.65,2.65,0,0,0-1.37-.75c-.73-.23-1.09-.53-1.09-.89v-4.1a3.6,3.6,0,0,0,1.16-1.17A14.52,14.52,0,0,0,2.44,16L16.25,9.16l.55-.68a17.69,17.69,0,0,1,.41-6.16C17.66.78,19.26,0,22,0a8.17,8.17,0,0,1,2.4.41A12.29,12.29,0,0,1,26.85,1.5a4.8,4.8,0,0,1,1.77,1.78A3.49,3.49,0,0,1,29,5.74q6.83.28,13.53,1a37.5,37.5,0,0,1,12,3.28,21.43,21.43,0,0,1,8.68,7.45Q66.57,22.42,66.56,31a43.08,43.08,0,0,1-3,15.58A38.11,38.11,0,0,1,54.94,60L29,85.86a19.51,19.51,0,0,1-3.22,2.73,7,7,0,0,1-3.76.82,4.83,4.83,0,0,1-3.35-1.16A4.09,4.09,0,0,1,17.34,85ZM29,72.73h-.55l1.09-.68c.09-.09.43-.39,1-.89s1.25-1.09,2-1.78S34,68,34.71,67.4s1.32-1.18,1.77-1.64q3.15-3.29,6.64-7a65.54,65.54,0,0,0,6.35-7.86,44.93,44.93,0,0,0,4.72-8.75A25.56,25.56,0,0,0,56,32.54a17.26,17.26,0,0,0-1.78-8.14,15.73,15.73,0,0,0-4.72-5.46,19.4,19.4,0,0,0-6.9-3.08,36,36,0,0,0-8.48-1c-.27,0-1.07.07-2.39.21A5.19,5.19,0,0,0,29,16Z"/><path class="cls-1" d="M72.72,12a6.53,6.53,0,0,1,2-2,5.39,5.39,0,0,1,2.53-.48A7.83,7.83,0,0,1,81.4,10.8a4.62,4.62,0,0,1,2.25,3.56,62,62,0,0,1,.62,7.72q.06,3.9,0,7.79c0,2.6-.09,5.2-.14,7.8s0,5.17.21,7.72q.54,9.3,1.71,19.28A167.76,167.76,0,0,1,87.21,84a6.47,6.47,0,0,1-1.1,4.1c-.73.91-2.14,1.36-4.23,1.36a4.7,4.7,0,0,1-4-1.77,11.45,11.45,0,0,1-2-4.24,26.27,26.27,0,0,1-.75-5c-.1-1.69-.14-3-.14-4q0-1.09-.21-4.59t-.41-8.2q-.19-4.71-.47-10c-.19-3.51-.37-6.83-.55-10s-.34-5.88-.48-8.2-.2-3.85-.2-4.58V12Z"/><path class="cls-1" d="M114.28,84.49A15.42,15.42,0,0,1,119.13,80a32.9,32.9,0,0,1,5.47-2.46c1.87-.64,3.74-1.25,5.61-1.85a18.58,18.58,0,0,0,5.53-2.94c1-.54,2.42-1.36,4.24-2.46s3.62-2.3,5.4-3.62a46.29,46.29,0,0,0,4.65-3.9c1.32-1.27,2-2.37,2-3.28,0-.09,0-.13-.13-.13s-.28-.05-.28-.14l-.27-.27a22.29,22.29,0,0,0-2.19-.69,16.31,16.31,0,0,1-1.78-.54Q129.74,55.65,119,54.07a116.72,116.72,0,0,1-16.54-3.35c-3.87-1.18-6.45-2.55-7.72-4.1a8.93,8.93,0,0,1-1.92-5.88,9.49,9.49,0,0,1,.55-3,32.83,32.83,0,0,1,1.3-3.28,29.91,29.91,0,0,1,1.57-3,18.39,18.39,0,0,1,1.5-2.19,22,22,0,0,1,5.75-4.92,49.67,49.67,0,0,1,7.65-3.83c2.74-1.1,5.49-2.05,8.27-2.87s5.31-1.55,7.59-2.19a25.38,25.38,0,0,0,7.73-1.85,33.72,33.72,0,0,1,7.72-2.12A3.9,3.9,0,0,1,145.59,13a4.9,4.9,0,0,1,1.23,3.14,5.71,5.71,0,0,1-.89,3.49,5.77,5.77,0,0,1-2.33,1.78,15.12,15.12,0,0,1-3.21,1c-1.18.23-2.37.48-3.55.76l-3,.75c-1.28.32-2.55.66-3.83,1s-2.42.69-3.42,1a14.21,14.21,0,0,0-1.77.55l-8,3.35A56.12,56.12,0,0,0,110.24,33a17,17,0,0,0-4.37,3.49,5.52,5.52,0,0,0-1.44,4v.14c.91,1.27,3,2.23,6.16,2.87s7,1.18,11.28,1.64,8.88.91,13.67,1.36a105.38,105.38,0,0,1,13.19,2.06,35.1,35.1,0,0,1,10,3.69c2.64,1.55,4,3.64,4.1,6.29a12.63,12.63,0,0,1-.61,3.55,7.26,7.26,0,0,1-1.71,3.14,88.58,88.58,0,0,1-8.14,7.93,84.68,84.68,0,0,1-10.18,7.59,71.3,71.3,0,0,1-11.28,5.88,36.83,36.83,0,0,1-11.42,2.8A5.27,5.27,0,0,1,115.92,88,4.45,4.45,0,0,1,114.28,84.49Z"/><path class="cls-1" d="M168.83,68.5q1.63-13.68,2.6-21.06t1.36-10.94c.37-2.73.55-4.32.55-4.78q1.23-4.24,2.6-9.16a45.17,45.17,0,0,1,3.62-9.16,22.61,22.61,0,0,1,5.81-7.11,14.14,14.14,0,0,1,9.16-2.87,26.23,26.23,0,0,1,4.45.34,15.28,15.28,0,0,1,3.75,1.16,24.88,24.88,0,0,1,3.49,2,40.38,40.38,0,0,1,3.62,2.81,21.15,21.15,0,0,1,1.58,1.5,3.8,3.8,0,0,1,.2,1.64,5.61,5.61,0,0,1-1.23,3.42,4.17,4.17,0,0,1-3.55,1.64,5.2,5.2,0,0,1-3.15-.89,18.72,18.72,0,0,1-2.39-2,18.07,18.07,0,0,0-2.46-2.05,5.84,5.84,0,0,0-3.35-.89,6.48,6.48,0,0,0-3.83,1.16,10.92,10.92,0,0,0-2.8,2.94,14.16,14.16,0,0,0-1.78,4,31.43,31.43,0,0,0-.89,4.1L179.77,68c0,.18,0,.61-.07,1.3s-.07,1.21-.07,1.57v2.39a15.41,15.41,0,0,0,.27,2.87,6.46,6.46,0,0,0,1,2.46,2.46,2.46,0,0,0,3.55.48,50.14,50.14,0,0,0,11.28-10.18,141,141,0,0,0,9-12.38q.14-.27.75-1.29T206.63,53c.41-.77.8-1.55,1.16-2.33s.64-1.34.82-1.7a17.29,17.29,0,0,0,1.23-3.7,26,26,0,0,1,1-3.55A6.33,6.33,0,0,1,212.72,39a5.91,5.91,0,0,1,3.82-1,5.37,5.37,0,0,1,3.69,1.64A5,5,0,0,1,222,43.48v.27a83.87,83.87,0,0,1-8.82,18.18,203,203,0,0,1-12,16.55,34,34,0,0,1-9.43,7.93,23.86,23.86,0,0,1-11.9,3h-.68c-4.1-1.54-6.86-3.85-8.27-6.9a25.21,25.21,0,0,1-2.12-10.73Z"/><path class="cls-1" d="M1.07,125l.16-1.84a1.73,1.73,0,0,0,0-.84l.28-1.64c0-.24,0-.5,0-.78a1.08,1.08,0,0,1,0-.58,1.4,1.4,0,0,1,.84-.56H2.23a1.44,1.44,0,0,1,1.12,0l1.2.36a6.89,6.89,0,0,0,.72.8l0,1.28a18.8,18.8,0,0,0,.12,2.08,1.6,1.6,0,0,0,0,.56l.68-.72a10.33,10.33,0,0,1,.9-.88c.57-.53.94-.86,1.1-1,0-.13.16-.24.48-.32a3.5,3.5,0,0,1,1.76,0,5.79,5.79,0,0,0,.8.22l1.48.64c0,.11.13.2.4.28l.36.2a1,1,0,0,1,.52.28c.32.06.44.28.36.68a.51.51,0,0,0,.12.32v1a12,12,0,0,1-.38,2.26c-.26,1.08-.42,1.72-.48,1.9s-.15.43-.24.72-.2.58-.3.84a11.92,11.92,0,0,1-.8,1.86,8.81,8.81,0,0,1-1.2,1.86A12.48,12.48,0,0,1,7.87,137c-1.26.48-2,.76-2.36.84q-.12,0,0,1.44v2.88l.12,1.76,0,1.8a3.28,3.28,0,0,1-.08,1.48l-.48.4a1.19,1.19,0,0,1-.92,0,4,4,0,0,1-1-.36c-.11,0-.28-.1-.52-.32l-.44-.16c-.38.06-.6,0-.68-.28-.27-.21-.4-.4-.4-.56l-.6-.88A3,3,0,0,1,.35,144a3.28,3.28,0,0,1-.16-1.36l-.08-1.52V139a7.78,7.78,0,0,0-.08-1.4,39.27,39.27,0,0,1,.08-4.24,9.37,9.37,0,0,0,.12-1l.6-4.92L1,126.05v-.32A3.28,3.28,0,0,0,1.07,125Zm8.56.64A7,7,0,0,0,9.75,124a1.32,1.32,0,0,0-.48.44L8,125.89c-1.39,1.74-2.08,2.76-2.08,3.08a3.43,3.43,0,0,1-.28.64l0,.64L5.55,132v.44a17.78,17.78,0,0,0,.12,2.48c0-.08.25-.25.68-.52l.68-.92a12.3,12.3,0,0,0,1.32-1.84,22,22,0,0,0,.88-3,5.74,5.74,0,0,1,.32-1.6,4.54,4.54,0,0,1,.08-.84Z"/><path class="cls-1" d="M25.27,130.37l-1.48.12a6.39,6.39,0,0,1-2-.24L22,131q.12,3.33,1.84,4.36a2,2,0,0,0,.8.2,1.71,1.71,0,0,0,.84-.32,1.39,1.39,0,0,0,.28-.44c0-.24.16-.34.4-.32,1.09-1.38,1.92-1.93,2.48-1.64s.84.67.84.88a.55.55,0,0,1-.2.36v.24a4.21,4.21,0,0,1-.5,1.44,10.09,10.09,0,0,1-1.06,1.76,1.79,1.79,0,0,1-.72.84,4.09,4.09,0,0,1-2.72.64.7.7,0,0,1-.44-.16,1.26,1.26,0,0,0-.48,0l-.32,0a1,1,0,0,1-.6-.16,1.45,1.45,0,0,0-.56-.24,4.49,4.49,0,0,1-1.26-.6,2.74,2.74,0,0,0-.38-.28,4,4,0,0,1-.76-.84,3.92,3.92,0,0,1-.6-.56,2.9,2.9,0,0,0-.42-.52,1,1,0,0,1-.22-.72.77.77,0,0,1-.16-.52l-.16-.32a.51.51,0,0,0-.24-.44.81.81,0,0,1-.24-.6v-.32c-.11-.05-.14-.21-.08-.48v-1l0-.36v-.28a1.81,1.81,0,0,1,.08-.68l0-.36a3.72,3.72,0,0,0,.12-.64,2.18,2.18,0,0,1,.36-1v-.36a1.25,1.25,0,0,0,0-.32,1.11,1.11,0,0,1,.1-.44c.06-.16.27-.76.62-1.8l.64-1.4a6,6,0,0,1,.88-1.32,2.94,2.94,0,0,1,.32-.72l.52-.48a1.36,1.36,0,0,1,.72-.52,2.23,2.23,0,0,1,.84-.28l1.12-.16a1.3,1.3,0,0,0,.28,0h.52a4.45,4.45,0,0,1,1.44.36,4.24,4.24,0,0,1,1.76.92A4.2,4.2,0,0,1,28.83,124a5.58,5.58,0,0,1-.4,2.2A19.9,19.9,0,0,1,27,129.05C26.51,129.93,25.93,130.37,25.27,130.37Zm.12-5.76a3.44,3.44,0,0,0,0-1.52,1.14,1.14,0,0,0-.76-.24c-.4,0-.76.38-1.08,1.12a7.15,7.15,0,0,0-1,2.12h0c-.3,1.12-.44,1.72-.44,1.8a3.35,3.35,0,0,0,1,.14,1.72,1.72,0,0,0,.92-.42A5.75,5.75,0,0,0,25.39,124.61Z"/><path class="cls-1" d="M32.83,122.85a1.74,1.74,0,0,1,.6-2,1.38,1.38,0,0,1,.7-.22,16.66,16.66,0,0,1,1.7.46.43.43,0,0,1,.28.08.72.72,0,0,1,.24.08c.24,0,.36.06.36.16a3.44,3.44,0,0,1,.44,1.4,20.2,20.2,0,0,0,.4,2.68.31.31,0,0,1,0-.12,7.26,7.26,0,0,0,.8-1.12c-.06,0,0-.2.28-.44a6.87,6.87,0,0,1,.4-1.08,1.35,1.35,0,0,1,.36-.64,2.45,2.45,0,0,1,.48-.74l.32-.3a1.76,1.76,0,0,1,1.6-.44l.44,0c.42,0,.68,0,.76.12.82,0,1.14,1,1,3q-.16,1.36-.48,1.56a4.89,4.89,0,0,1-1.22.44,10.8,10.8,0,0,0-1.26.4,3,3,0,0,0-1.8,1.84,3.3,3.3,0,0,1-.24.92c-.06.43-.09.68-.1.76a2.72,2.72,0,0,0,0,.48,4.75,4.75,0,0,1-.24,1.52,15.24,15.24,0,0,0-.1,2.42,18.9,18.9,0,0,1-.08,2.34,2.77,2.77,0,0,1-.14.68c0,.14,0,.23,0,.28v.24a3.36,3.36,0,0,1-.76,1l-.6,0c-.62,0-1,0-1-.12a1.12,1.12,0,0,1-.6-.48c-.16,0-.24-.13-.24-.32a.54.54,0,0,1-.44-.48c-.3-.32-.44-.53-.44-.64a6.83,6.83,0,0,1-.32-2.64v-2a2,2,0,0,0,.08-.28v-.36c.16-.16.18-.26.08-.32v-.32a.82.82,0,0,0,.06-.28q0-.24.06-.84A23.08,23.08,0,0,0,34,126a5.89,5.89,0,0,1-.56-1.64,1.42,1.42,0,0,0-.16-.56v-.36c-.11-.32-.2-.48-.28-.5S32.83,122.88,32.83,122.85Z"/><path class="cls-1" d="M47.35,123.85l0-.32a1.39,1.39,0,0,1,.24-.6,5.7,5.7,0,0,1,.6-.76l.48-.52a2.62,2.62,0,0,1,.92-.44,3.89,3.89,0,0,1,1.2-.4h.44a1.49,1.49,0,0,1,.36,0,8.3,8.3,0,0,0,.84.16,6,6,0,0,1,2.24.28l.44.32.46.34.72.52c.28.2.66.52,1.14.94a2.38,2.38,0,0,1,.92,2.68l-.36.76a1.23,1.23,0,0,1-1.28.4l-.36,0a1.7,1.7,0,0,1-.72-1c-.24-.21-.4-.36-.48-.44a5.33,5.33,0,0,0-2.4-1.44,2,2,0,0,0-1.32.72c-.43.46-.42,1,0,1.76,0,.24,0,.39.08.44a6,6,0,0,1,.36.6c.34.43.61.79.8,1.08a1.34,1.34,0,0,0,.64.8l.24.52c.08,0,.45.26,1.12.68a2.62,2.62,0,0,1,.48.6l1.56,1.72a2.78,2.78,0,0,1,.48.76,1.49,1.49,0,0,1,.5.88,2.13,2.13,0,0,1-.18.88.85.85,0,0,1-.38.72,4.92,4.92,0,0,0-.56.46,12.06,12.06,0,0,1-1.34.9,6.11,6.11,0,0,1-1.84.92l-1.2.32-.36.06a6.37,6.37,0,0,1-1,.06h-.32a3,3,0,0,1-.92.08,4.5,4.5,0,0,1-2.24-.6c-.14,0-.22-.12-.24-.2-.54-.85-.8-1.21-.8-1.08a1.6,1.6,0,0,1-.22-.8c0-.4-.08-.64-.1-.74a.58.58,0,0,1,.12-.42c.24-.42.72-.45,1.44-.08l.52.28a1.51,1.51,0,0,0,.88.44,3.82,3.82,0,0,1,.68,0,3.22,3.22,0,0,0,.76,0l.72-.32h0a.62.62,0,0,1,.24-.06,3.37,3.37,0,0,0,.6-.14c.77-.24,1.08-.61.92-1.12l-.28-.48a3.82,3.82,0,0,0-1-1.32l-.32-.2q-1.6-1.56-2.52-2.64a4.94,4.94,0,0,1-.52-.44,2.49,2.49,0,0,1-.56-1.2,4.15,4.15,0,0,1-.4-1v-.76s0-.21,0-.48a2.29,2.29,0,0,1,0-.7.88.88,0,0,0,0-.46A2.21,2.21,0,0,1,47.35,123.85Z"/><path class="cls-1" d="M64.09,120.17a1.07,1.07,0,0,0,.52-.1,5.26,5.26,0,0,1,.68-.26,8.67,8.67,0,0,1,2.38,0,6.86,6.86,0,0,1,2.32,1,5.64,5.64,0,0,1,2.12,1.76,18,18,0,0,1,1.24,5.16,16.92,16.92,0,0,1-.64,5.56,21.29,21.29,0,0,1-1.32,3,3.88,3.88,0,0,1-.64,1.36,1.25,1.25,0,0,0-.32,0s-.08.12-.22.26a.84.84,0,0,1-.62.22,1.68,1.68,0,0,0-.62.22.61.61,0,0,1-.42.1l-1,.08H66.47a4.28,4.28,0,0,1-1.72-.28l-1.2-.8-.4-.48c-.08,0-.13,0-.14-.1l-.06-.18a.8.8,0,0,1-.36-.64,2.15,2.15,0,0,1-.44-1,.56.56,0,0,0-.12-.4,6.59,6.59,0,0,0-.36-1.76l-.08-.56V132a6,6,0,0,0-.32-1.4s0-.2,0-.44a11.4,11.4,0,0,1,0-1.24l-.12-.52a.83.83,0,0,0,.1-.44,1.59,1.59,0,0,1,.1-.6v-.28l.16-1.4a.94.94,0,0,1,.08-.44v-.28s.09-.13.12-.4l.2-.32,0-.32a1,1,0,0,0,0-.24l.2-.6a1.66,1.66,0,0,1,.28-.48,1.25,1.25,0,0,1,.28-.6.85.85,0,0,1,.2-.48,1.63,1.63,0,0,1,.44-.92A1.12,1.12,0,0,1,64.09,120.17Zm5.66,7.56-.2-1a.83.83,0,0,0-.06-.28,3.35,3.35,0,0,1-.14-.6,3.86,3.86,0,0,1-.44-.36l-.2-.32-.12-.36a.4.4,0,0,1-.22-.34.66.66,0,0,0-.16-.36.94.94,0,0,1-.22-.28.59.59,0,0,0-.16-.18,1.08,1.08,0,0,0-1,0c-.4.14-.64.32-.72.56a6.71,6.71,0,0,0-.68,2,5.39,5.39,0,0,0-.32,2.72,15.09,15.09,0,0,0,.32,3.52v.44a6,6,0,0,1,.68,1.28l.54.74a1.21,1.21,0,0,0,.18.26,2.78,2.78,0,0,1,.48.4,3,3,0,0,0,.44-.24v-.28a2.8,2.8,0,0,1,.36-.24s.06-.09.28-.28l.2-.2c.4-.85.6-1.3.6-1.34s0-.12,0-.26a.39.39,0,0,1,.2-.56l.48-1.4v-.24a.31.31,0,0,0-.08-.36v-.28a.72.72,0,0,0,.08-.32,3.78,3.78,0,0,0,.14-.76.64.64,0,0,1,0-.3.45.45,0,0,1,.12-.26C70.23,128,70.09,127.89,69.75,127.73Z"/><path class="cls-1" d="M86.23,135.93l-.24-.68-.44-2.68a5.08,5.08,0,0,1-.2-1.36l.16-1.76a1.28,1.28,0,0,1,0-.48c-.32,0-.8.39-1.44,1.16a4.11,4.11,0,0,0-.24.4,14.21,14.21,0,0,0-2,6.44c-.22.46-.5.68-.84.68q-1.08-.24-1.2-.24l-.28,0H79a1.28,1.28,0,0,1-1.2-.72,2,2,0,0,1-.16-1v-.56l-.12-2.2v-3.28c0-.37,0-.84-.08-1.4a27.18,27.18,0,0,1,0-2.9,13.15,13.15,0,0,0,0-2.12.69.69,0,0,1-.08-.38,1.07,1.07,0,0,1,.12-.48c.08-.16.44-.33,1.08-.52a1.79,1.79,0,0,1,.88-.32,9.2,9.2,0,0,1,1.44.48c.4.08.6.47.6,1.16a23.27,23.27,0,0,1,0,2.48c0,.51,0,1.54,0,3.08q3-5.67,5.28-6.84a.82.82,0,0,1,.6-.2,1.66,1.66,0,0,1,.92.4,6.75,6.75,0,0,0,.72.52,2.87,2.87,0,0,1,.46.4,1.48,1.48,0,0,0,.42.36c.32.54.38,1.79.2,3.76,0,.3-.06.56-.08.78s0,.72,0,1.46,0,1.27,0,1.56c.08.94.12,1.48.12,1.64l.2,1.52a4.82,4.82,0,0,1,.42,1.42,3.72,3.72,0,0,0,.7,1.58.7.7,0,0,1-.24,1c-.54.27-.82.38-.86.34s-.2,0-.46.08a3.76,3.76,0,0,1-1.44.06,2.14,2.14,0,0,1-1-.64l-.6-.6a2.82,2.82,0,0,1-.44-1C86.21,136.12,86.17,136,86.23,135.93Z"/><path class="cls-1" d="M94,135.37a12.26,12.26,0,0,1,0-2.64c.62-2.24,1.1-3.94,1.45-5.12,0,0,.09-.36.28-1a6.6,6.6,0,0,1,.79-1.84,2.12,2.12,0,0,1,.33-.64c0-.24.29-.65.88-1.24l.44-.48a3,3,0,0,1,2-.64,3.33,3.33,0,0,1,1.12,0,17.24,17.24,0,0,1,2.64,1.56l.4.24a5.27,5.27,0,0,1,.6.2,3.74,3.74,0,0,1,.68.16l.52.4a1,1,0,0,1,.44.68,2.83,2.83,0,0,0-.24,1.56,15.31,15.31,0,0,0,.24,4,26.44,26.44,0,0,0,.76,4.56,5,5,0,0,0,.3,1.08,3.44,3.44,0,0,1,.26,1.12c0,.67-.63,1-1.89,1a2.84,2.84,0,0,1-2.56-1.6,3.42,3.42,0,0,0-.27-.64,1.52,1.52,0,0,1-.52-.8l-.08-.56a.46.46,0,0,1-.2-.32,10.44,10.44,0,0,1-1.2,1.4l-.84,1.32-.33.32c0,.11-.3.24-.83.38a1.85,1.85,0,0,1-1.17.06,2.45,2.45,0,0,1-.56-.08l-1.75-.72a1.43,1.43,0,0,1-.88-.56,2.06,2.06,0,0,1-.52-.36C94.12,135.8,94,135.51,94,135.37Zm8.44-9.68-.2-.36c-.32,0-.92.66-1.8,2a14.18,14.18,0,0,0-2.2,4.2,8.68,8.68,0,0,0-.52,2,1.83,1.83,0,0,0,.48,1.52.71.71,0,0,0,.46-.28,1.52,1.52,0,0,0,.3-.4,2.72,2.72,0,0,0,.72-.92c.34-.5.53-.77.56-.8l.36-.76.68-1.16c-.06,0,0-.3.23-.92a3.27,3.27,0,0,0,.52-1.28Z"/><path class="cls-1" d="M112.18,116.53a1.48,1.48,0,0,0,.08-.68,14.42,14.42,0,0,1,0-1.6,2.4,2.4,0,0,0,0-1.4,2.17,2.17,0,0,1,.48-1.26,3.53,3.53,0,0,1,1-1v0a1.54,1.54,0,0,1,.72-.24,1.76,1.76,0,0,1,2,.84,5.65,5.65,0,0,0-.16,1.8v4.08c0,.67,0,1.58,0,2.72v1.52l.16,2.6a18,18,0,0,0,.12,2.08,18.84,18.84,0,0,0,.08,2.32,2.86,2.86,0,0,1,.08.56v.64a7.51,7.51,0,0,0,.08,1.28,2.06,2.06,0,0,0,.2.84,2.41,2.41,0,0,0,0,1.36,2.41,2.41,0,0,1,.12,1.24,2.29,2.29,0,0,1,.16,1.28l.12.24.08.36a1.74,1.74,0,0,1-.14,1.22,1.71,1.71,0,0,1-1.2,1c-.6.18-1.27-.11-2-.86,0-.08-.17-.2-.44-.36s-.58-.81-.8-1.88a1.86,1.86,0,0,1-.2-.84,1.32,1.32,0,0,1-.44-1.08v-.88a1.94,1.94,0,0,0-.16-.8,2.22,2.22,0,0,1-.2-.84l.08-2.68a18,18,0,0,0-.08-2v-2.72c-.08-.88-.12-1.55-.12-2s.1-1.4.28-2.82a1.27,1.27,0,0,0-.12-.44A8.23,8.23,0,0,0,112.18,116.53Z"/><path class="cls-1" d="M123.18,112.33c1.79,0,3,.36,3.76,1.08a8.84,8.84,0,0,1-.92,2.76,2.28,2.28,0,0,1-.52,1.08l-.52.52a.75.75,0,0,1-.4.12,2.07,2.07,0,0,1-2.24-.56A1,1,0,0,0,122,117c-.14-.08-.26-.32-.34-.72a1.6,1.6,0,0,1-.36-.8q-.08-2.48,1.8-3.12Zm-.32,9.44c.27-.13.9,0,1.88.4a1.73,1.73,0,0,0,.48.32l.64.52a.7.7,0,0,1,.16.52v3.52a10.39,10.39,0,0,1-.08,1.44v.24c-.08,1.1,0,3.56.2,7.4.08.75-.09,1.2-.52,1.36a1.3,1.3,0,0,1-.88-.2.67.67,0,0,0-.28-.08h-.28l-.24.08a1.21,1.21,0,0,1-.44-.18,1,1,0,0,1-.42-.38.44.44,0,0,0-.34-.24.66.66,0,0,1-.48-.6,7.24,7.24,0,0,1-.58-1.28,1.24,1.24,0,0,0-.14-.44l-.2-3.48a4.27,4.27,0,0,1,.08-.92v-1c0-.29.06-.83.08-1.62s.07-1.42.12-1.9c-.05-.69-.08-1.16-.08-1.4a2.93,2.93,0,0,1,0-.52c-.29-.29-.28-.69,0-1.2a1.71,1.71,0,0,1,1-.4Z"/><path class="cls-1" d="M128.78,121.73a4.82,4.82,0,0,0-.16-.68,1.64,1.64,0,0,1-.2-.72c0-.21,0-.32,0-.32a1.85,1.85,0,0,1,.72-1.38,2.27,2.27,0,0,1,1.8-.22l1.28.48,1.84.44.92-2.64a2.67,2.67,0,0,0,.38-.88,1.93,1.93,0,0,1,.14-.52,4.83,4.83,0,0,1,.32-.84l.16-.64a1.53,1.53,0,0,1,1.12-.68,1,1,0,0,1,.84,0,2,2,0,0,1,1.64.8,2.69,2.69,0,0,1-.12.64,9.08,9.08,0,0,0-.2,1.16l-1,4h.32l1,0a2.06,2.06,0,0,0,.44,0c.59-.13,1-.22,1.36-.26a5.44,5.44,0,0,0,.64-.1,2.32,2.32,0,0,0,.68,0,2,2,0,0,1,1.16.34,1.1,1.1,0,0,1,.6.92c0,.36-.25.68-.76.94l-.36.48a5.85,5.85,0,0,0-1.12.56,24.77,24.77,0,0,1-4.6,1.08l-.28,2a.82.82,0,0,1,.08.32c-.18,1.15-.34,2.58-.48,4.28,0,.62,0,1,0,1.24v1.08a2.16,2.16,0,0,0,0,.52,13.44,13.44,0,0,0,.24,2.34c.16.9.26,1.44.28,1.62a4.14,4.14,0,0,1,0,.64.88.88,0,0,1-.56.88,4.73,4.73,0,0,1-2.16-.44c-.48-.08-.69-.18-.64-.32a2.79,2.79,0,0,1-.64-.76.78.78,0,0,0,0-.36c-.18-.08-.28-.29-.28-.64a.86.86,0,0,1-.08-.28l-.28-1a1.65,1.65,0,0,1-.24-1.28,1,1,0,0,0-.12-.4v-.28a2.68,2.68,0,0,1,0-.48,8.26,8.26,0,0,1,0-2.66c.16-1,.27-1.76.32-2.22a.69.69,0,0,1,.08-.52,6.78,6.78,0,0,1,.16-1.12l.36-2.28a1.61,1.61,0,0,0-.48-.08,11.22,11.22,0,0,1-2.2-.6l-.48-.28a1.86,1.86,0,0,1-.8-.3A1.67,1.67,0,0,1,128.78,121.73Z"/><path class="cls-1" d="M148.7,124.81a9.11,9.11,0,0,1-.06,1.12q-.06.48-.06.6a11.33,11.33,0,0,1-.1,1.82,6.71,6.71,0,0,0-.1.94v1.8a13.41,13.41,0,0,0,.16,2.78,1,1,0,0,0,.56.62.76.76,0,0,0,.68-.06,1.68,1.68,0,0,0,.46-.56,3.37,3.37,0,0,0,.36-.88,8.46,8.46,0,0,1,.42-1.08,4.12,4.12,0,0,0,.34-.84,2.3,2.3,0,0,1,.34-.66,22,22,0,0,0,.64-5v-1.28a7.26,7.26,0,0,1,.6-2.68,2.48,2.48,0,0,1,1.64-1l.6,0a1.54,1.54,0,0,1,1,.24,11.48,11.48,0,0,1,0,3.28v2.76c.06,1.34.08,2.26.08,2.76,0,.19,0,1.76,0,4.72a7.16,7.16,0,0,0,0,1,25.84,25.84,0,0,1-.1,2.8c-.09,1.44-.14,2.31-.14,2.6a11.16,11.16,0,0,1-1,3.36,5.16,5.16,0,0,1-1.46,1.6,4,4,0,0,1-2.28.88,3.37,3.37,0,0,0-.64,0,5.44,5.44,0,0,1-3.12-1,8.19,8.19,0,0,1-2.46-1.58,2.65,2.65,0,0,1-.42-.94,3.77,3.77,0,0,1,.24-1.48,1.14,1.14,0,0,1,1.56-.28c.27.14.75.4,1.44.8l1.32.64a.41.41,0,0,0,.56,0,1.86,1.86,0,0,1,.48-.24,5.55,5.55,0,0,0,1.32-1.76,3.26,3.26,0,0,1,.4-1.2,8.88,8.88,0,0,1,.48-2.36v-.44a5.86,5.86,0,0,1,.08-1,3.21,3.21,0,0,0,.08-.66c-.21.4-.38.78-.52,1.12a3.19,3.19,0,0,1-.48.88q0,.24-.84.48l-1.48,0s-.08,0-.24,0l-.6,0c-1.41,0-2.3-.18-2.68-.56a4,4,0,0,0-.68-.68,2.14,2.14,0,0,1-.44-1.12,1.29,1.29,0,0,1-.16-.68v-.44l-.08-.48a1.31,1.31,0,0,0-.08-.56,11.14,11.14,0,0,1-.08-1.56v-.48a37.14,37.14,0,0,1,.08-3.72,1,1,0,0,0,.12-.44.53.53,0,0,1,0-.44l.08-.56.4-1.24a6.41,6.41,0,0,1,.24-1,.89.89,0,0,0,.28-.56,7.71,7.71,0,0,0,.18-1,1.94,1.94,0,0,1,.34-.76,2,2,0,0,1,1.42-.26,2.54,2.54,0,0,1,1.62.82l-.44,1.76a3.08,3.08,0,0,1,0,.48Z"/><path class="cls-1" d="M176.44,113.37c-.06.67-.1,1.16-.1,1.46a6.71,6.71,0,0,1,0,.82v1l0,.28v.84a5.79,5.79,0,0,1,0,.72l1.4-.28a9,9,0,0,0,1.16-.2,8.81,8.81,0,0,1,1.82-.18,1.62,1.62,0,0,1,1.12.34,1.31,1.31,0,0,1,.3.92,1.1,1.1,0,0,1-.28.92l-.16.24a1.45,1.45,0,0,1-.92.68l-1.4.2-1.8.44-1.08.4c0,.67.08,1.4.14,2.2s.1,1.36.1,1.68l.12,1.48q.52,3.52,1.36,7.2a5.61,5.61,0,0,1,.52,1.64l.32.84c.11.91-.45,1.36-1.68,1.36-.21,0-.74,0-1.6-.16a2.16,2.16,0,0,1-1-.72c0-.05-.14-.22-.44-.52l-.76-1.84a3.07,3.07,0,0,1-.2-.76,4.16,4.16,0,0,1-.72-2,2,2,0,0,0-.08-.4v-.56a3,3,0,0,1-.4-1.56c-.08-.85-.17-1.65-.28-2.4a18.23,18.23,0,0,0-.24-3l-.08-.88v-.36c0-.26,0-.4,0-.4h-.48a2.77,2.77,0,0,1-1,0,2.74,2.74,0,0,1-2.44-1c-.32-.72-.33-1.18,0-1.4a6.9,6.9,0,0,1,2.16-.64,5.15,5.15,0,0,0,2-.52,2.6,2.6,0,0,1,.12-1.12A4.46,4.46,0,0,1,172,117a1.33,1.33,0,0,0,.18-.54,11.76,11.76,0,0,1,.68-2.84,5.41,5.41,0,0,1,.44-1.24q.53-.75,2.16-.48a1.58,1.58,0,0,1,1,.52C176.5,112.39,176.51,112.71,176.44,113.37Z"/><path class="cls-1" d="M188.1,138.61l-.4-.08-.56-.56a.38.38,0,0,1-.36-.2c-.29-.34-.82-1-1.6-2.08l-.6-2.2a2.49,2.49,0,0,0-.24-1.12c-.26-1.2-.42-1.88-.48-2.06a12.9,12.9,0,0,1,0-3.22,23,23,0,0,1,1.48-3.76,1.59,1.59,0,0,0,.44-1l.64-.92a5.92,5.92,0,0,1,1.88-1.52,5.69,5.69,0,0,1,1.36-.4,4.91,4.91,0,0,1,1.28.2c1.6.38,2.6.84,3,1.4l.12.2a6.41,6.41,0,0,1,.88,3.32c-.08.67-.14,1.23-.2,1.68a10.17,10.17,0,0,1-.88,2.48,10.43,10.43,0,0,1-1.16,1.8,2.74,2.74,0,0,1-1.2.64,1.66,1.66,0,0,1-.68.08h-.92a2.44,2.44,0,0,0-.52,0,4.71,4.71,0,0,1-1.16-.2,9.32,9.32,0,0,0,.5,2.5,7,7,0,0,0,.82,2,6.39,6.39,0,0,0,1.32.84,2.21,2.21,0,0,0,1.28.06,1.91,1.91,0,0,0,1.16-.54l1-1.28q1-1.35,2-.24a1.16,1.16,0,0,1,.38,1,10,10,0,0,1-.82,2,7.61,7.61,0,0,1-1.28,1.6,5.86,5.86,0,0,1-1.48.64,3.72,3.72,0,0,1-1.12-.12,2.1,2.1,0,0,1-1.36,0c0-.05-.07-.08-.22-.1a2.49,2.49,0,0,1-.58-.14l.08,0h-.48l-1.12-.6Zm3.12-15.88c-.05-.13-.23-.18-.54-.16a.87.87,0,0,0-.7.48,11.17,11.17,0,0,0-1.76,5.56,2.07,2.07,0,0,0,2.32-1.2Q191.79,123.5,191.22,122.73Z"/><path class="cls-1" d="M199.42,123.85l0-.32a1.39,1.39,0,0,1,.24-.6,5.7,5.7,0,0,1,.6-.76l.48-.52a2.7,2.7,0,0,1,.92-.44,4.11,4.11,0,0,1,1.2-.4h.44a1.49,1.49,0,0,1,.36,0,8.3,8.3,0,0,0,.84.16,6,6,0,0,1,2.24.28l.44.32.46.34.72.52c.28.2.66.52,1.14.94a2.36,2.36,0,0,1,.92,2.68l-.36.76a1.23,1.23,0,0,1-1.28.4l-.36,0a1.79,1.79,0,0,1-.72-1c-.24-.21-.4-.36-.48-.44a5.33,5.33,0,0,0-2.4-1.44,2,2,0,0,0-1.32.72c-.43.46-.41,1,0,1.76a.75.75,0,0,0,.08.44,6,6,0,0,1,.36.6,13.14,13.14,0,0,1,.8,1.08,1.38,1.38,0,0,0,.64.8l.24.52c.08,0,.45.26,1.12.68a2.62,2.62,0,0,1,.48.6l1.56,1.72a2.78,2.78,0,0,1,.48.76,1.44,1.44,0,0,1,.5.88,2.13,2.13,0,0,1-.18.88.85.85,0,0,1-.38.72,6,6,0,0,0-.56.46,12.06,12.06,0,0,1-1.34.9,6,6,0,0,1-1.84.92l-1.2.32-.36.06a6.29,6.29,0,0,1-1,.06h-.32a2.93,2.93,0,0,1-.92.08,4.53,4.53,0,0,1-2.24-.6.38.38,0,0,1-.24-.2c-.53-.85-.8-1.21-.8-1.08a1.6,1.6,0,0,1-.22-.8,5.6,5.6,0,0,0-.1-.74.58.58,0,0,1,.12-.42c.24-.42.72-.45,1.44-.08l.52.28a1.51,1.51,0,0,0,.88.44,3.83,3.83,0,0,1,.68,0,3.22,3.22,0,0,0,.76,0l.72-.32h0a.77.77,0,0,1,.24-.06,3.37,3.37,0,0,0,.6-.14c.77-.24,1.08-.61.92-1.12l-.28-.48a3.58,3.58,0,0,0-1-1.32l-.32-.2q-1.61-1.56-2.52-2.64a6.33,6.33,0,0,1-.52-.44,2.49,2.49,0,0,1-.56-1.2,4.61,4.61,0,0,1-.4-1v-.76s0-.21,0-.48a2.29,2.29,0,0,1,0-.7.88.88,0,0,0,0-.46A2.41,2.41,0,0,1,199.42,123.85Z"/><path class="cls-1" d="M216,123.29l0-.36c-.56-.05-1-.1-1.18-.14s-.59-.08-1.1-.14a4.84,4.84,0,0,1-1.2-.24,1.51,1.51,0,0,1-1-1.46c-.08-.78.17-1.27.76-1.46a5.73,5.73,0,0,1,1.12-.2c.21,0,.61,0,1.2-.08a2.86,2.86,0,0,1,1.2-.28l.6-.16s.11,0,.32-.08l.2-.84a2.62,2.62,0,0,1,.36-1.28,6.82,6.82,0,0,1,.52-1.56c0-.1.24-.88.72-2.32a9,9,0,0,1,1.2-.92c.43-.21,1-.06,1.8.44a1.68,1.68,0,0,1,.88.76,1.73,1.73,0,0,0-.24,1.12c0,.19-.21,1.18-.56,3v1.12l1.06.2c.49.11,1.09.23,1.78.36a3.19,3.19,0,0,1,2.52,1.6,1.52,1.52,0,0,1-.08,1.24,2.16,2.16,0,0,1-1.36.52c-.59,0-1.35,0-2.3,0a8.17,8.17,0,0,0-2.1.2c-.05.48-.08.86-.08,1.12l0,.6c0,.19-.12,1.18-.36,3a15,15,0,0,0-.4,3.72v2.92a7.32,7.32,0,0,0,.12,1.36,3.78,3.78,0,0,0,.2,1.24,12.2,12.2,0,0,0,.2,1.52,1.63,1.63,0,0,1-1.58,1.16,2.71,2.71,0,0,1-1.94-.8l-.44-.64c-.08-.21-.14-.36-.18-.44a1.51,1.51,0,0,1-.1-.28,4.42,4.42,0,0,0-.44-1,1,1,0,0,1-.24-.48v-.4a8.9,8.9,0,0,0-.2-1.16,2.55,2.55,0,0,1-.2-1.36,17.21,17.21,0,0,0,0-2.44,4.19,4.19,0,0,0,0-1.52l.12-.88c0-.1.05-.5.16-1.2a2.31,2.31,0,0,1,0-.86,5.93,5.93,0,0,1,.12-1A7.9,7.9,0,0,0,216,123.29Z"/></g></g></svg>