<svg xmlns="http://www.w3.org/2000/svg" viewBox="0 0 188.02 178.58"><defs><style>.cls-1{opacity:0.35;}.cls-2{opacity:0.4;}.cls-3{fill:#4f23ef;}.cls-4{fill:#f45f43;}.cls-5{fill:#57e57f;}.cls-6{fill:#fff;stroke:#36425b;stroke-miterlimit:10;}</style></defs><title>Asset 5</title><g id="Layer_2" data-name="Layer 2"><g id="bg" class="cls-1"><g class="cls-2"><path class="cls-3" d="M142.54,29.17l-2.3,0a107.48,107.48,0,0,0-20.33,3.18c-6.69,1.62-13.39,3.51-20.34,5.39A52.3,52.3,0,0,0,85,43.44a109.62,109.62,0,0,0-12.79,8.74,116.73,116.73,0,0,1,32-15.2,125,125,0,0,1,36.58-5.13c-1.87,2.63-4.22,5-7.46,5.81a182.37,182.37,0,0,0-22.67,4.82l-1.17-3.38c-4.88,2.35-9.51,4.34-14.12,6.2s-9,3.81-13.35,6A69.45,69.45,0,0,0,69.7,59.56,58,58,0,0,0,64.19,65c-.87,1-1.69,2-2.54,3.09s-1.72,2.31-2.53,3.51c.91-.23,1.09.63,1.38,1.16l-.11.12.11-.12c.25.47.6.68,1.6-.31-1,1-1.35.78-1.6.31l2.87-3.05c.94-1,1.81-1.84,2.72-2.75,1.78-1.85,3.64-3.44,5.47-5.11a89,89,0,0,1,11.53-8.4A98,98,0,0,1,109.9,42.72a103.06,103.06,0,0,0-21.12,8.62A95.35,95.35,0,0,0,70.89,64.46L68.77,66.4l-2.09,2.07-2.11,2.09-2.25,2.31q-4.56,4.66-8.63,9.1a82.56,82.56,0,0,0-6.6,8.16,32.93,32.93,0,0,0-3.81,7.39l-.69,2c-.26.78-.49,1.71-.66,2.27a17.74,17.74,0,0,0-2.6,3.32,23.57,23.57,0,0,0-2,3.84,33.07,33.07,0,0,0-1.45,4.17,41,41,0,0,0-1,4.38c-2.08-1.15-5.6-.63-8.11-1.28s-4-2.51-2-8.34l-3.53-.71c-3.4,5.62-8.33,9.11-12.64,9.54S.67,114.6.06,108A49.77,49.77,0,0,1,1,95.68a70.83,70.83,0,0,1,4.61-14.9,77,77,0,0,1,9.08-15.53l2.55-3.35,2.49-3.07c.83-1.06,1.59-1.94,2.37-2.92l2.25-2.84,3.25-3.85,3.21-3.68c2.17-2.4,4.14-4.61,6.72-7.12a92.63,92.63,0,0,1,7.85-7,72.11,72.11,0,0,1,9-6c8.76-4.86,18.05-9.86,27.51-13.47a106.06,106.06,0,0,1,28-7c6.5-1.06,16.63-6.43,20.37-4.57,2.53.69,3.06,2.55,3.24,4.7q-15.15,3.24-30.24,7.65c-6.27,1.6-12.58,3.39-18.93,5.58a190.53,190.53,0,0,0-19,7.86q9.5-4,19-7.37c6.33-2.2,12.63-4.19,18.93-6.07,10.19-2.51,20.27-4.41,30.34-5.9a10.43,10.43,0,0,0,1.21,5.39l4.53-1.09c7.09,2.93,7,9.44,5.06,14.53C143.85,26.74,143.24,27.94,142.54,29.17Z"/></g><g class="cls-2"><path class="cls-4" d="M184,99.6a14.77,14.77,0,0,0-1.46-.55,27.64,27.64,0,0,0-13.2-.36A75.17,75.17,0,0,0,156,103a32.52,32.52,0,0,0-10.2,6.07c-3.23,2.73-6.28,5.83-9.26,8.69,7.63-6.16,15.08-12.3,22.77-15.5a30.19,30.19,0,0,1,23.23-.43,14.52,14.52,0,0,1-2.32,2.8,4.74,4.74,0,0,1-2.54,1.35A29.56,29.56,0,0,0,165,107.6l-1.52-3.24c-2.72,2-5.54,3.86-8.63,5.78s-6.36,4-9.68,6.41l-2.48,1.82c-.83.64-1.65,1.3-2.47,2-1.62,1.31-3.24,2.8-4.78,4.29a48.67,48.67,0,0,0-4.3,4.8c-.64.84-1.27,1.7-1.86,2.59s-1.05,1.79-1.53,2.72c.74-.1,1.06.65,1.41,1.12l-.08.09.08-.09c.3.42.64.64,1.31-.09-.67.73-1,.51-1.31.09l1.89-2.26,2.06-2.28c1.37-1.51,2.89-3,4.36-4.52,3-3,6.05-5.83,9.08-8.31.76-.65,1.52-1.27,2.27-1.84l2.28-1.73c1.51-1,3-2.14,4.53-3a51,51,0,0,1,4.49-2.43l2.22-.94c.73-.33,1.47-.5,2.2-.76A48.66,48.66,0,0,0,151,116.08a176.57,176.57,0,0,0-13.85,13.09c-1.13,1.17-2.3,2.37-3.34,3.52l-1.62,1.73-1.49,1.7c-1,1.15-1.87,2.22-2.76,3.3-.47.55-.79,1.05-1.19,1.57s-.79,1-1.08,1.52a32.27,32.27,0,0,0-3.22,5.81c-.46,1-.84,2.13-1.27,3.24l-.59,1.87-.3.95-.29,1-.52,1.89-.49,2.05A22.8,22.8,0,0,0,112.76,172c-4.19-2-14,1.12-10.38-8.06l-3.53-.7c-6.25,8.69-19.31,10.35-21-.23-.68-6,.57-12.71,3.1-20.59a103.39,103.39,0,0,1,5.14-12.55c2.14-4.3,4.6-8.47,6.88-12.32a97.9,97.9,0,0,1,10.72-13.86,65.7,65.7,0,0,1,11.8-10.24c6.16-4,12.34-8.94,19.65-13.42.91-.56,1.88-1.09,2.82-1.62s1.86-1.08,2.89-1.55a62.08,62.08,0,0,1,6.11-2.69c1.05-.38,2.09-.77,3.15-1.11s2.17-.6,3.25-.87a44.66,44.66,0,0,1,6.53-1.07A43.09,43.09,0,0,0,165,69.93c1.85-.53,3.8-1,5.68-1.43,3.72-.72,7.13-1,8.63.33,2.15,1.21,2.23,3.13,2,5.28l-3.38,0c-1.13,0-2.28.15-3.42.23-2.28.11-4.57.52-6.86.86-1.14.18-2.28.48-3.42.72s-2.28.49-3.39.85l-3.36,1L154.22,79a94.39,94.39,0,0,0-15.51,6.87c-4.9,2.66-9.42,5.58-13.92,8.4,4.65-2.49,9.17-5.27,14-7.94A121.77,121.77,0,0,1,154.22,79l3.33-1,3.39-.8a33.19,33.19,0,0,1,3.39-.65c1.14-.17,2.27-.39,3.4-.5,2.27-.17,4.53-.44,6.76-.39,1.11,0,2.23,0,3.33,0l3.28.22a12.42,12.42,0,0,0,.08,5.53l1.41-.05c.79,0,1.72,0,2.35,0A9.37,9.37,0,0,1,188,89.06a20.07,20.07,0,0,1-2.21,7.61Z"/></g><g class="cls-2"><path class="cls-5" d="M180.3,43.61l-2.5,1c-14.86,6.69-27.71,15.52-42.91,23.45C124,73.17,113.43,81.75,104.81,89.28a325.41,325.41,0,0,1,35.24-23.4,296.82,296.82,0,0,1,39.24-18.94,17.21,17.21,0,0,1-6.56,8.88c-8.51,4.5-16.65,8.91-24.44,13.46l-1.94-3A169.52,169.52,0,0,1,131,77.08c-5.14,3.29-10.31,6.37-15.21,9.66-1.25.81-2.46,1.65-3.65,2.5s-2.42,1.69-3.55,2.59-2.28,1.8-3.41,2.72-2.2,2-3.28,3a68.41,68.41,0,0,0-11.5,13.92c.95-.32,1.14.56,1.45,1.08l-.11.13.11-.13c.27.46.63.65,1.65-.46-1,1.11-1.38.92-1.65.46a152.69,152.69,0,0,1,12-12.76l3.14-2.9,3.21-2.74c1.06-.92,2.2-1.79,3.32-2.67s2.23-1.75,3.41-2.6a275.36,275.36,0,0,1,30.47-19c-8.42,4.94-16.4,10-23.85,15.45l-2.78,2-2.69,2.08c-1.82,1.38-3.51,2.82-5.25,4.23s-3.33,2.9-5,4.37-3.25,3-4.83,4.61a256.7,256.7,0,0,0-18.31,20.52c-6,7.37-11.9,15.19-18.19,23.26l-4.33,5.54a65.13,65.13,0,0,0-16.33,14.43c-1.14-2.13-4.59-3.28-6.42-5.12s-2.06-4.32,3.08-9.19l-2.79-2.27c-6.16,4-12.52,4.82-16.48,3.08a6.62,6.62,0,0,1-4-4.45c-.56-2.07-.25-4.65,1.18-7.8,3.4-6.9,8.86-13.85,14.92-21.26s12.67-15.19,18.48-23.48c8.68-11.77,18.66-23.69,31.67-32.35,8.92-5.79,17.76-11.67,26.67-17.1a184.72,184.72,0,0,1,26.9-13.93c3.18-1.5,7-4.43,10.45-6.94s6.67-4.6,8.85-4.41c2.73-.27,3.88,1.27,4.75,3.26-9.52,6-19.22,11.88-29,17.68q-9.19,5-18.51,10.23c-6.21,3.48-12.46,7.07-18.76,10.88,6.38-3.45,12.64-6.88,18.84-10.39S128.08,45.67,134.18,42l29.64-16c.68,1.75,1.41,3.57,3,4.67,0,0,2.89-1.91,4.31-2.89,8.25-.21,10.51,5.88,10.08,11.63C180.94,40.67,180.67,42.11,180.3,43.61Z"/></g></g><g id="Layer_1-2" data-name="Layer 1"><polyline class="cls-6" points="57.62 159.39 57.62 159.43 57.62 159.43 57.62 159.39 57.62 159.43"/><path class="cls-6" d="M60.12,159.44a56.59,56.59,0,0,0,3.82-8.91.77.77,0,0,0-.43-1c-1.11-.46-3.18-1.2-4-1.59a7,7,0,0,0-1.22-.5,54,54,0,0,1-23.2-16.78,77.05,77.05,0,0,1-13.4-25.16,36.65,36.65,0,0,1-1-3.74,72,72,0,0,1-1.14-19.26c.18-2.45.48-4.94.9-7.49V75a55.37,55.37,0,0,1,4.14-15.24C28.19,52,29.48,48.08,36,40.53c7.49-8.6,11.74-12.64,21.23-17.83a81.71,81.71,0,0,1,28.64-9.1c1.81-.23,4.49-.44,6.31-.48,2.44,0,4.87,0,7.27.19A78.61,78.61,0,0,1,141.2,29,73.63,73.63,0,0,1,166,62.29c.62,1.7,1.37,4.24,1.81,6a76.94,76.94,0,0,1,2.27,24,65.28,65.28,0,0,1-2.24,12.84l0,.1,0,.09a59.77,59.77,0,0,1-10,21.4,87.09,87.09,0,0,1-14.47,15.23c-1.41,1.18-3.52,2.8-5,3.81a70.63,70.63,0,0,1-19.91,9.06c-4.33,1.23-8.31,2.12-11.08,2.69a24.11,24.11,0,0,1-6.34.43c-2.74-.19-7.7-.14-9.55-.11a.78.78,0,0,0-.71.61,74.88,74.88,0,0,1-3.18,9.78,1.06,1.06,0,0,0,.93,1.46l4.27.24a97.81,97.81,0,0,0,28.94-3.55A82,82,0,0,0,148,153.53l.09-.07.09-.07a102.59,102.59,0,0,0,19.25-19.64,72.72,72.72,0,0,0,11-22.2c.54-1.86,1.31-4.8,1.74-6.68A77.66,77.66,0,0,0,182,93.13a90.9,90.9,0,0,0-3.5-31.2l0-.11,0-.11a85.56,85.56,0,0,0-30-42.26A90.44,90.44,0,0,0,88.23,1.28H88A102.73,102.73,0,0,0,51.51,12.17,83.79,83.79,0,0,0,23.16,36a70.77,70.77,0,0,0-9,16A102.45,102.45,0,0,0,8.62,73.13v0c-.48,2.9-.82,5.75-1,8.57A84.77,84.77,0,0,0,9.43,106.5l.05.21.06.21a90.07,90.07,0,0,0,16.27,31.39A65.92,65.92,0,0,0,54.9,159l3.32,1.14A1.6,1.6,0,0,0,60.12,159.44Z"/><path class="cls-6" d="M101.09,37.76a69.67,69.67,0,0,1,7.6.24,66.36,66.36,0,0,1,31.42,11.42A36.21,36.21,0,0,1,152.52,65q4.42,10,3.61,23.32-1.35,21.95-19.23,34.45T91,133.5Q88.2,179,72.08,178.06q-10.74-.66-10.18-9.77c.11-1.87,1.21-4.38,3.27-7.54a35.52,35.52,0,0,0,4.66-11A171.38,171.38,0,0,0,73,129.58q-9.39-3.62-9.06-9t5.23-5.07a19.9,19.9,0,0,1,5.1,1q6.86-62.17,8.43-68.64-13.52,2.45-22.73,9.39T50.07,74.49q-.36,5.83-3,9a7.47,7.47,0,0,1-6.39,2.89q-7-.44-6.52-8.37,1-15.64,15.55-26.13T85.32,38.67Q90.68,24,98.62,24.48,101.89,24.69,101.09,37.76Zm37.12,56q1.29-21-10.06-32.85A44.22,44.22,0,0,0,99.8,47.3q-6,41.11-8.28,77.56a38.52,38.52,0,0,0,5.11.78q19.62,1.2,30.16-8.23A33.33,33.33,0,0,0,138.21,93.73Z"/></g></g></svg>