<svg xmlns="http://www.w3.org/2000/svg" viewBox="0 0 174.85 176.97"><defs><style>.cls-1{fill:#fff;}</style></defs><title>Asset 9</title><g id="Layer_2" data-name="Layer 2"><g id="Layer_1-2" data-name="Layer 1"><polyline class="cls-1" points="50.25 158.29 50.25 158.32 50.25 158.32 50.25 158.29 50.25 158.32"/><path class="cls-1" d="M52.75,158.33a56.54,56.54,0,0,0,3.82-8.9.78.78,0,0,0-.43-1c-1.11-.45-3.18-1.2-4-1.58a7.81,7.81,0,0,0-1.22-.51,54,54,0,0,1-23.2-16.78,77,77,0,0,1-13.4-25.16,37.15,37.15,0,0,1-1-3.73A72.1,72.1,0,0,1,12.2,81.42c.18-2.44.48-4.93.9-7.49h0v0a55.28,55.28,0,0,1,4.14-15.24C20.82,50.89,22.11,47,28.67,39.43c7.49-8.6,11.74-12.64,21.23-17.84a81.71,81.71,0,0,1,28.64-9.1c1.81-.23,4.49-.44,6.31-.47,2.44,0,4.87,0,7.27.19a78.53,78.53,0,0,1,41.71,15.7,73.51,73.51,0,0,1,24.76,33.27c.63,1.7,1.38,4.24,1.82,6a77,77,0,0,1,2.27,24A65.51,65.51,0,0,1,160.44,104l0,.09,0,.1a59.93,59.93,0,0,1-10,21.4,86.78,86.78,0,0,1-14.48,15.23c-1.4,1.18-3.51,2.8-5,3.8A70.66,70.66,0,0,1,111,153.69c-4.33,1.23-8.31,2.13-11.08,2.68a30,30,0,0,1-7,.4c-2.75-.19-5-.1-6.9-.07a.78.78,0,0,0-.72.6,73.21,73.21,0,0,1-3.17,9.78,1.07,1.07,0,0,0,.93,1.47l2.27.23a97.81,97.81,0,0,0,28.94-3.55,81.83,81.83,0,0,0,26.4-12.81l.09-.06.09-.07a102.36,102.36,0,0,0,19.25-19.65,72.72,72.72,0,0,0,11-22.2c.54-1.85,1.31-4.79,1.74-6.67A78,78,0,0,0,174.64,92a91,91,0,0,0-3.5-31.21l0-.11,0-.1a85.51,85.51,0,0,0-30-42.26A90.65,90.65,0,0,0,80.86.17h-.19A102.51,102.51,0,0,0,44.14,11.06a83.84,83.84,0,0,0-28.35,23.8,70.35,70.35,0,0,0-9,16A102.53,102.53,0,0,0,1.25,72v0q-.72,4.33-1,8.57a84.7,84.7,0,0,0,1.83,24.84l0,.22.06.2a90.12,90.12,0,0,0,16.27,31.4A66,66,0,0,0,47.53,157.9L50.85,159A1.6,1.6,0,0,0,52.75,158.33Z"/><path class="cls-1" d="M93.72,36.66a68.52,68.52,0,0,1,7.6.23,66.65,66.65,0,0,1,31.42,11.42,36.18,36.18,0,0,1,12.41,15.54q4.42,10,3.61,23.31-1.35,22-19.23,34.45T83.62,132.4Q80.83,177.94,64.71,177q-10.74-.66-10.18-9.77c.11-1.87,1.21-4.38,3.27-7.53a35.58,35.58,0,0,0,4.66-11,171,171,0,0,0,3.12-20.21q-9.39-3.61-9.06-9t5.23-5.07a19.46,19.46,0,0,1,5.1,1q6.86-62.17,8.43-68.64-13.52,2.46-22.73,9.39T42.7,73.38c-.24,3.9-1.24,6.88-3,9a7.45,7.45,0,0,1-6.39,2.89q-7-.42-6.52-8.37,1-15.64,15.55-26.12T78,37.57q5.35-14.67,13.3-14.19Q94.52,23.58,93.72,36.66Zm37.12,56q1.29-21-10.06-32.85A44.32,44.32,0,0,0,92.43,46.19q-6,41.13-8.28,77.56a38.86,38.86,0,0,0,5.11.79q19.62,1.2,30.16-8.23A33.35,33.35,0,0,0,130.84,92.62Z"/></g></g></svg>