<svg xmlns="http://www.w3.org/2000/svg" viewBox="0 0 175.85 177.97"><defs><style>.cls-1{fill:#fff;stroke:#36425b;stroke-miterlimit:10;}</style></defs><title>Asset 4</title><g id="Layer_2" data-name="Layer 2"><g id="Layer_1-2" data-name="Layer 1"><polyline class="cls-1" points="50.75 158.79 50.75 158.82 50.75 158.82 50.75 158.79 50.75 158.82"/><path class="cls-1" d="M53.25,158.83a56.54,56.54,0,0,0,3.82-8.9.78.78,0,0,0-.43-1c-1.11-.45-3.18-1.2-4-1.58a7.81,7.81,0,0,0-1.22-.51,54,54,0,0,1-23.2-16.78,77,77,0,0,1-13.4-25.16,37.15,37.15,0,0,1-1-3.73A72.1,72.1,0,0,1,12.7,81.92c.18-2.44.48-4.93.9-7.49h0v0a55.28,55.28,0,0,1,4.14-15.24c3.58-7.76,4.87-11.68,11.43-19.22,7.49-8.6,11.74-12.64,21.23-17.84A81.71,81.71,0,0,1,79,13c1.81-.23,4.49-.44,6.31-.47,2.44,0,4.87,0,7.27.19a78.53,78.53,0,0,1,41.71,15.7,73.51,73.51,0,0,1,24.76,33.27c.63,1.7,1.38,4.24,1.82,6a77,77,0,0,1,2.27,24,65.51,65.51,0,0,1-2.24,12.85l0,.09,0,.1a59.93,59.93,0,0,1-10,21.4,86.78,86.78,0,0,1-14.48,15.23c-1.4,1.18-3.51,2.8-5,3.8a70.66,70.66,0,0,1-19.91,9.07c-4.33,1.23-8.31,2.12-11.08,2.68a23.29,23.29,0,0,1-6.34.43c-2.75-.18-7.7-.13-9.55-.1a.78.78,0,0,0-.72.6,73.21,73.21,0,0,1-3.17,9.78,1.07,1.07,0,0,0,.93,1.47l4.27.23a97.81,97.81,0,0,0,28.94-3.55,81.83,81.83,0,0,0,26.4-12.81l.09-.06.09-.07a102.36,102.36,0,0,0,19.25-19.65,72.72,72.72,0,0,0,11-22.2c.54-1.85,1.31-4.79,1.74-6.67a78,78,0,0,0,1.76-11.74,91,91,0,0,0-3.5-31.21l0-.11,0-.1a85.51,85.51,0,0,0-30-42.26A90.65,90.65,0,0,0,81.36.67h-.19A102.51,102.51,0,0,0,44.64,11.56a83.84,83.84,0,0,0-28.35,23.8,70.35,70.35,0,0,0-9,16A102.53,102.53,0,0,0,1.75,72.52v0Q1,76.82.73,81.05a84.7,84.7,0,0,0,1.83,24.84l0,.22.06.2a90.12,90.12,0,0,0,16.27,31.4A66,66,0,0,0,48,158.4l3.32,1.14A1.6,1.6,0,0,0,53.25,158.83Z"/><path class="cls-1" d="M94.22,37.16a68.52,68.52,0,0,1,7.6.23,66.65,66.65,0,0,1,31.42,11.42,36.18,36.18,0,0,1,12.41,15.54q4.42,10,3.61,23.31-1.35,22-19.23,34.45T84.12,132.9q-2.79,45.54-18.91,44.55-10.74-.66-10.18-9.77c.11-1.87,1.21-4.38,3.27-7.53a35.58,35.58,0,0,0,4.66-11A171,171,0,0,0,66.08,129q-9.39-3.61-9.06-9t5.23-5.07a19.46,19.46,0,0,1,5.1,1q6.86-62.17,8.43-68.64-13.52,2.46-22.73,9.39T43.2,73.88c-.24,3.9-1.24,6.88-3,9a7.45,7.45,0,0,1-6.39,2.89q-7-.42-6.52-8.37,1-15.64,15.55-26.12T78.45,38.07q5.35-14.67,13.3-14.19Q95,24.08,94.22,37.16Zm37.12,56q1.29-21-10.06-32.85A44.32,44.32,0,0,0,92.93,46.69q-6,41.13-8.28,77.56a38.86,38.86,0,0,0,5.11.79q19.62,1.2,30.16-8.23A33.35,33.35,0,0,0,131.34,93.12Z"/></g></g></svg>